# xmcd CD database file
#
# Track frame offsets:
#	150
#	5394
#	10229
#	18120
#	22883
#	30527
#	34676
#	38570
#	46618
#	52540
#	59066
#	63602
#	67285
#	74544
#	79077
#	86051
#	92813
#	108726
#	115667
#	120756
#	125094
#	130031
#	135182
#	139398
#	154296
#	158704
#	163200
#	167650
#	171973
#	179412
#	192248
#	197272
#	203010
#	207645
#	211730
#	218307
#
# Disc length: 2981 seconds
#
# Revision: 5
# Processed by: cddbd v1.5.2PL0 Copyright (c) Steve Scherf et al.
# Submitted via: CDex 1.51
#
DISCID=e80ba324
DTITLE=Désiré-Émile Inghelbrecht - La Nursery  (Piano 4 mains - Brigitte Gonin Chanut and Paul Crapie)
DYEAR=2008
DGENRE=Piano
TTITLE0=Livret 1 - Petit papa 
TTITLE1=Livret 1 - Une souris verte
TTITLE2=Livret 1 - Églogue
TTITLE3=Livret 1 - J'ai descendu dans mon jardin
TTITLE4=Livret 1 - Berceuse pour un poupée malade
TTITLE5=Livret 1 - Am stram gram
TTITLE6=Livret 2 - Où vas-tu p'tite boiteuse ¿
TTITLE7=Livret 2 - Le petit homme gris
TTITLE8=Livret 2 - Ballade du petit Jésus
TTITLE9=Livret 2 - La bergère
TTITLE10=Livret 2 - Les chevaliers du Roy
TTITLE11=Livret 2 - Un poule sur un mur
TTITLE12=Livret 3 - Nous n'irons plus au bois
TTITLE13=Livret 3 - La tour prends garde
TTITLE14=Livret 3 - Bon voyage, monsieur Dumollet
TTITLE15=Livret 3 - Sur le pont d'Avignon
TTITLE16=Livret 3 - Où est la Marguerite ¿
TTITLE17=Livret 3 - Arlequin marie sa fille
TTITLE18=Livret 4 - La bonne aventure
TTITLE19=Livret 4 - La boulangère
TTITLE20=Livret 4 - Ah mon beau château
TTITLE21=Livret 4 - J'ai fait voler mon cerf-volant
TTITLE22=Livret 4 - Le furet
TTITLE23=Livret 4 - Sur l'pont du Nord
TTITLE24=Livret 5 - Bonjour ma tante
TTITLE25=Livret 5 - Biquette
TTITLE26=Livret 5 - Derrière chez mon père
TTITLE27=Livret 5 - Le petit bossu
TTITLE28=Livret 5 - Mon âne
TTITLE29=Livret 5 - Malbrough
TTITLE30=Livret 6 - Le p'tit Christophe
TTITLE31=Livret 6 - Quand j'étais petite fille
TTITLE32=Livret 6 - À ma main droite, j'ai un rosier
TTITLE33=Livret 6 - Dansez bamboula
TTITLE34=Livret 6 - Jean de la Lune
TTITLE35=Livret 6 - Le p'tit marchand d'allumettes
EXTD=YEAR: 2008
EXTT0=
EXTT1=
EXTT2=
EXTT3=
EXTT4=
EXTT5=
EXTT6=
EXTT7=
EXTT8=
EXTT9=
EXTT10=
EXTT11=
EXTT12=
EXTT13=
EXTT14=
EXTT15=
EXTT16=
EXTT17=
EXTT18=
EXTT19=
EXTT20=
EXTT21=
EXTT22=
EXTT23=
EXTT24=
EXTT25=
EXTT26=
EXTT27=
EXTT28=
EXTT29=
EXTT30=
EXTT31=
EXTT32=
EXTT33=
EXTT34=
EXTT35=
PLAYORDER=
